<svg xmlns="http://www.w3.org/2000/svg" viewBox="0 0 120 120" fill="none" aria-hidden="true">
  <defs>
    <radialGradient id="ball-shine" cx="35%" cy="30%" r="65%">
      <stop offset="0%" stop-color="#ffffff" />
      <stop offset="55%" stop-color="#f4f4f5" />
      <stop offset="100%" stop-color="#d4d4d8" />
    </radialGradient>
    <filter id="ball-shadow" x="-20%" y="-20%" width="140%" height="140%">
      <feDropShadow dx="0" dy="2" stdDeviation="2" flood-color="#0f172a" flood-opacity="0.25" />
    </filter>
  </defs>
  <g filter="url(#ball-shadow)">
    <circle cx="60" cy="60" r="54" fill="url(#ball-shine)" stroke="#18181b" stroke-width="2.2" />
    <!-- klasyczna piłka: pentagony + heksagony -->
    <g fill="#18181b">
      <polygon points="60,18 69.5,25 66,36 54,36 50.5,25" />
      <polygon points="60,102 50.5,95 54,84 66,84 69.5,95" />
      <polygon points="18,48 24,38 36,40 39,52 30,60" />
      <polygon points="102,48 96,38 84,40 81,52 90,60" />
      <polygon points="30,84 36,74 48,76 51,88 42,96" />
      <polygon points="90,84 84,74 72,76 69,88 78,96" />
    </g>
    <g fill="none" stroke="#18181b" stroke-width="1.6" stroke-linejoin="round">
      <path d="M60 18 69.5 25 84 40 90 60 84 74 69.5 95 60 102 50.5 95 36 84 30 60 36 40 50.5 25Z" />
      <path d="M60 18 50.5 25 36 40 30 60 36 74 50.5 95" />
      <path d="M60 18 69.5 25 84 40 90 60 84 74 69.5 95" />
      <path d="M36 40 54 36 66 36 84 40" />
      <path d="M36 74 54 84 66 84 84 74" />
      <path d="M30 60 39 52 51 52 60 60 51 68 39 68Z" />
      <path d="M90 60 81 52 69 52 60 60 69 68 81 68Z" />
    </g>
  </g>
</svg>
