<svg xmlns="http://www.w3.org/2000/svg" viewBox="0 0 1600 900" preserveAspectRatio="xMidYMid slice">
  <defs>
    <linearGradient id="g" x1="0" y1="0" x2="0" y2="1">
      <stop offset="0%" stop-color="#1e3a5f"/>
      <stop offset="100%" stop-color="#0f4c3a"/>
    </linearGradient>
    <linearGradient id="p" x1="0" y1="0" x2="1" y2="1">
      <stop offset="0%" stop-color="#15803d"/>
      <stop offset="100%" stop-color="#166534"/>
    </linearGradient>
    <pattern id="s" width="64" height="900" patternUnits="userSpaceOnUse">
      <rect width="32" height="900" fill="rgba(255,255,255,.04)"/>
    </pattern>
  </defs>
  <rect width="1600" height="900" fill="url(#g)"/>
  <ellipse cx="200" cy="80" rx="500" ry="260" fill="rgba(255,248,220,.35)"/>
  <ellipse cx="1400" cy="80" rx="500" ry="260" fill="rgba(255,248,220,.32)"/>
  <path d="M0 220Q800 150 1600 220V460Q800 380 0 460Z" fill="#1e293b"/>
  <path d="M0 260Q800 200 1600 260V430Q800 360 0 430Z" fill="#334155" opacity=".6"/>
  <g transform="translate(80,470)">
    <rect width="1440" height="360" rx="20" fill="url(#p)"/>
    <rect width="1440" height="360" rx="20" fill="url(#s)"/>
    <rect x="20" y="20" width="1400" height="320" rx="12" fill="none" stroke="rgba(255,255,255,.4)" stroke-width="3"/>
    <line x1="720" y1="20" x2="720" y2="340" stroke="rgba(255,255,255,.4)" stroke-width="3"/>
    <circle cx="720" cy="180" r="70" fill="none" stroke="rgba(255,255,255,.35)" stroke-width="3"/>
  </g>
  <path d="M0 650Q800 600 1600 650V900H0Z" fill="#0f172a" opacity=".9"/>
</svg>
